<?xml version="1.0" standalone="no"?><!DOCTYPE svg PUBLIC "-//W3C//DTD SVG 1.1//EN" "http://www.w3.org/Graphics/SVG/1.1/DTD/svg11.dtd"><svg t="1655798559435" class="icon" viewBox="0 0 1024 1024" version="1.1" xmlns="http://www.w3.org/2000/svg" p-id="3503" width="200" height="200" xmlns:xlink="http://www.w3.org/1999/xlink"><defs><style type="text/css">@font-face { font-family: feedback-iconfont; src: url("//at.alicdn.com/t/font_1031158_u69w8yhxdu.woff2?t=1630033759944") format("woff2"), url("//at.alicdn.com/t/font_1031158_u69w8yhxdu.woff?t=1630033759944") format("woff"), url("//at.alicdn.com/t/font_1031158_u69w8yhxdu.ttf?t=1630033759944") format("truetype"); }
</style></defs><path d="M512 64c247.424 0 448 200.576 448 448S759.424 960 512 960 64 759.424 64 512 264.576 64 512 64z m340.6 625.504l-152.385-0.003c-26.47 67.398-67.875 134.461-124.049 201.152v0.01c120.416-20.257 221.81-96.56 276.435-201.159z m-529.541-0.003l-151.66 0.003c54.495 104.353 155.541 180.543 275.585 201.015v-0.011c-56.11-66.643-97.475-133.658-123.925-201.007z m316.473 0h-255.79c27.86 62.945 70.428 126.25 127.891 189.957 56.896-63.07 99.186-125.746 127.06-188.07l0.84-1.888zM303.73 390.5H147.62C134.892 428.685 128 469.538 128 512c0 42.463 6.892 83.316 19.619 121.501h156.91C293.521 592.616 288 551.613 288 510.5c0-39.47 5.09-78.84 15.235-118.1l0.495-1.9z m357.646 0H361.898C349.95 430.638 344 470.635 344 510.5c0 40.859 6.25 81.855 18.802 123h297.67c12.552-41.145 18.802-82.141 18.802-123 0-39.865-5.95-79.862-17.898-120z m215.005 0H719.544c10.475 39.89 15.73 79.893 15.73 120 0 41.113-5.522 82.116-16.528 123.001H876.38C889.108 595.316 896 554.463 896 512c0-42.462-6.892-83.315-19.619-121.5zM444.047 133.996l-0.4 0.07C325.07 155.368 225.388 231.11 171.4 334.496l150.491 0.004c25.937-67.18 66.713-134.027 122.157-200.505z m67.594 7.547l-1.391 1.536c-57.673 64.2-100.218 127.993-127.826 191.422H640.85c-27.828-63.935-70.832-128.24-129.209-192.958z m67.461-7.7l1.366 1.645C635.28 201.473 675.64 267.823 701.383 334.5l151.218-0.004c-54.179-103.749-154.371-179.66-273.499-200.654z" fill="#ffffff" fill-opacity=".65" p-id="3504"></path></svg>